<?xml version="1.0" encoding="UTF-8"?>
<svg xmlns="http://www.w3.org/2000/svg" xmlns:xlink="http://www.w3.org/1999/xlink" width="600pt" height="450pt" viewBox="0 0 600 450" version="1.1">
<defs>
<g>
<symbol overflow="visible" id="U0FmoR4i0-0">
<path style="stroke:none;" d="M 0.59375 2.125 L 0.59375 -8.46875 L 6.59375 -8.46875 L 6.59375 2.125 Z M 1.265625 1.453125 L 5.9375 1.453125 L 5.9375 -7.78125 L 1.265625 -7.78125 Z M 1.265625 1.453125 "/>
</symbol>
<symbol overflow="visible" id="U0FmoR4i0-1">
<path style="stroke:none;" d="M 0.59375 -3.765625 L 3.75 -3.765625 L 3.75 -2.8125 L 0.59375 -2.8125 Z M 0.59375 -3.765625 "/>
</symbol>
<symbol overflow="visible" id="U0FmoR4i0-2">
<path style="stroke:none;" d="M 3.8125 -7.96875 C 3.207031 -7.96875 2.75 -7.664062 2.4375 -7.0625 C 2.132812 -6.46875 1.984375 -5.566406 1.984375 -4.359375 C 1.984375 -3.160156 2.132812 -2.257812 2.4375 -1.65625 C 2.75 -1.0625 3.207031 -0.765625 3.8125 -0.765625 C 4.425781 -0.765625 4.882812 -1.0625 5.1875 -1.65625 C 5.5 -2.257812 5.65625 -3.160156 5.65625 -4.359375 C 5.65625 -5.566406 5.5 -6.46875 5.1875 -7.0625 C 4.882812 -7.664062 4.425781 -7.96875 3.8125 -7.96875 Z M 3.8125 -8.90625 C 4.789062 -8.90625 5.539062 -8.515625 6.0625 -7.734375 C 6.582031 -6.960938 6.84375 -5.835938 6.84375 -4.359375 C 6.84375 -2.890625 6.582031 -1.765625 6.0625 -0.984375 C 5.539062 -0.210938 4.789062 0.171875 3.8125 0.171875 C 2.832031 0.171875 2.082031 -0.210938 1.5625 -0.984375 C 1.050781 -1.765625 0.796875 -2.890625 0.796875 -4.359375 C 0.796875 -5.835938 1.050781 -6.960938 1.5625 -7.734375 C 2.082031 -8.515625 2.832031 -8.90625 3.8125 -8.90625 Z M 3.8125 -8.90625 "/>
</symbol>
<symbol overflow="visible" id="U0FmoR4i0-3">
<path style="stroke:none;" d="M 2.296875 -1 L 6.4375 -1 L 6.4375 0 L 0.875 0 L 0.875 -1 C 1.320312 -1.457031 1.929688 -2.078125 2.703125 -2.859375 C 3.484375 -3.648438 3.972656 -4.160156 4.171875 -4.390625 C 4.554688 -4.804688 4.820312 -5.160156 4.96875 -5.453125 C 5.125 -5.753906 5.203125 -6.046875 5.203125 -6.328125 C 5.203125 -6.796875 5.035156 -7.175781 4.703125 -7.46875 C 4.378906 -7.757812 3.957031 -7.90625 3.4375 -7.90625 C 3.0625 -7.90625 2.664062 -7.84375 2.25 -7.71875 C 1.84375 -7.59375 1.40625 -7.394531 0.9375 -7.125 L 0.9375 -8.328125 C 1.414062 -8.515625 1.859375 -8.65625 2.265625 -8.75 C 2.679688 -8.851562 3.0625 -8.90625 3.40625 -8.90625 C 4.3125 -8.90625 5.035156 -8.675781 5.578125 -8.21875 C 6.117188 -7.769531 6.390625 -7.164062 6.390625 -6.40625 C 6.390625 -6.050781 6.320312 -5.710938 6.1875 -5.390625 C 6.050781 -5.066406 5.804688 -4.6875 5.453125 -4.25 C 5.347656 -4.132812 5.035156 -3.804688 4.515625 -3.265625 C 3.992188 -2.722656 3.253906 -1.96875 2.296875 -1 Z M 2.296875 -1 "/>
</symbol>
<symbol overflow="visible" id="U0FmoR4i1-0">
<path style="stroke:none;" d="M 0.59375 2.125 L 0.59375 -8.46875 L 6.59375 -8.46875 L 6.59375 2.125 Z M 1.265625 1.453125 L 5.9375 1.453125 L 5.9375 -7.78125 L 1.265625 -7.78125 Z M 1.265625 1.453125 "/>
</symbol>
<symbol overflow="visible" id="U0FmoR4i1-1">
<path style="stroke:none;" d="M 1.484375 -1 L 3.421875 -1 L 3.421875 -7.671875 L 1.3125 -7.25 L 1.3125 -8.328125 L 3.40625 -8.75 L 4.59375 -8.75 L 4.59375 -1 L 6.53125 -1 L 6.53125 0 L 1.484375 0 Z M 1.484375 -1 "/>
</symbol>
<symbol overflow="visible" id="U0FmoR4i2-0">
<path style="stroke:none;" d="M 0.59375 2.125 L 0.59375 -8.46875 L 6.59375 -8.46875 L 6.59375 2.125 Z M 1.265625 1.453125 L 5.9375 1.453125 L 5.9375 -7.78125 L 1.265625 -7.78125 Z M 1.265625 1.453125 "/>
</symbol>
<symbol overflow="visible" id="U0FmoR4i2-1">
<path style="stroke:none;" d="M 1.484375 -1 L 3.421875 -1 L 3.421875 -7.671875 L 1.3125 -7.25 L 1.3125 -8.328125 L 3.40625 -8.75 L 4.59375 -8.75 L 4.59375 -1 L 6.53125 -1 L 6.53125 0 L 1.484375 0 Z M 1.484375 -1 "/>
</symbol>
<symbol overflow="visible" id="U0FmoR4i3-0">
<path style="stroke:none;" d="M 0.59375 2.125 L 0.59375 -8.46875 L 6.59375 -8.46875 L 6.59375 2.125 Z M 1.265625 1.453125 L 5.9375 1.453125 L 5.9375 -7.78125 L 1.265625 -7.78125 Z M 1.265625 1.453125 "/>
</symbol>
<symbol overflow="visible" id="U0FmoR4i3-1">
<path style="stroke:none;" d="M 0.59375 -3.765625 L 3.75 -3.765625 L 3.75 -2.8125 L 0.59375 -2.8125 Z M 0.59375 -3.765625 "/>
</symbol>
<symbol overflow="visible" id="U0FmoR4i4-0">
<path style="stroke:none;" d="M 0.59375 2.125 L 0.59375 -8.46875 L 6.59375 -8.46875 L 6.59375 2.125 Z M 1.265625 1.453125 L 5.9375 1.453125 L 5.9375 -7.78125 L 1.265625 -7.78125 Z M 1.265625 1.453125 "/>
</symbol>
<symbol overflow="visible" id="U0FmoR4i4-1">
<path style="stroke:none;" d="M 2.296875 -1 L 6.4375 -1 L 6.4375 0 L 0.875 0 L 0.875 -1 C 1.320312 -1.457031 1.929688 -2.078125 2.703125 -2.859375 C 3.484375 -3.648438 3.972656 -4.160156 4.171875 -4.390625 C 4.554688 -4.804688 4.820312 -5.160156 4.96875 -5.453125 C 5.125 -5.753906 5.203125 -6.046875 5.203125 -6.328125 C 5.203125 -6.796875 5.035156 -7.175781 4.703125 -7.46875 C 4.378906 -7.757812 3.957031 -7.90625 3.4375 -7.90625 C 3.0625 -7.90625 2.664062 -7.84375 2.25 -7.71875 C 1.84375 -7.59375 1.40625 -7.394531 0.9375 -7.125 L 0.9375 -8.328125 C 1.414062 -8.515625 1.859375 -8.65625 2.265625 -8.75 C 2.679688 -8.851562 3.0625 -8.90625 3.40625 -8.90625 C 4.3125 -8.90625 5.035156 -8.675781 5.578125 -8.21875 C 6.117188 -7.769531 6.390625 -7.164062 6.390625 -6.40625 C 6.390625 -6.050781 6.320312 -5.710938 6.1875 -5.390625 C 6.050781 -5.066406 5.804688 -4.6875 5.453125 -4.25 C 5.347656 -4.132812 5.035156 -3.804688 4.515625 -3.265625 C 3.992188 -2.722656 3.253906 -1.96875 2.296875 -1 Z M 2.296875 -1 "/>
</symbol>
<symbol overflow="visible" id="U0FmoR4i5-0">
<path style="stroke:none;" d="M 0.59375 2.125 L 0.59375 -8.46875 L 6.59375 -8.46875 L 6.59375 2.125 Z M 1.265625 1.453125 L 5.9375 1.453125 L 5.9375 -7.78125 L 1.265625 -7.78125 Z M 1.265625 1.453125 "/>
</symbol>
<symbol overflow="visible" id="U0FmoR4i5-1">
<path style="stroke:none;" d="M 3.8125 -7.96875 C 3.207031 -7.96875 2.75 -7.664062 2.4375 -7.0625 C 2.132812 -6.46875 1.984375 -5.566406 1.984375 -4.359375 C 1.984375 -3.160156 2.132812 -2.257812 2.4375 -1.65625 C 2.75 -1.0625 3.207031 -0.765625 3.8125 -0.765625 C 4.425781 -0.765625 4.882812 -1.0625 5.1875 -1.65625 C 5.5 -2.257812 5.65625 -3.160156 5.65625 -4.359375 C 5.65625 -5.566406 5.5 -6.46875 5.1875 -7.0625 C 4.882812 -7.664062 4.425781 -7.96875 3.8125 -7.96875 Z M 3.8125 -8.90625 C 4.789062 -8.90625 5.539062 -8.515625 6.0625 -7.734375 C 6.582031 -6.960938 6.84375 -5.835938 6.84375 -4.359375 C 6.84375 -2.890625 6.582031 -1.765625 6.0625 -0.984375 C 5.539062 -0.210938 4.789062 0.171875 3.8125 0.171875 C 2.832031 0.171875 2.082031 -0.210938 1.5625 -0.984375 C 1.050781 -1.765625 0.796875 -2.890625 0.796875 -4.359375 C 0.796875 -5.835938 1.050781 -6.960938 1.5625 -7.734375 C 2.082031 -8.515625 2.832031 -8.90625 3.8125 -8.90625 Z M 3.8125 -8.90625 "/>
</symbol>
<symbol overflow="visible" id="U0FmoR4i6-0">
<path style="stroke:none;" d="M 0.59375 2.125 L 0.59375 -8.46875 L 6.59375 -8.46875 L 6.59375 2.125 Z M 1.265625 1.453125 L 5.9375 1.453125 L 5.9375 -7.78125 L 1.265625 -7.78125 Z M 1.265625 1.453125 "/>
</symbol>
<symbol overflow="visible" id="U0FmoR4i6-1">
<path style="stroke:none;" d="M 2.296875 -1 L 6.4375 -1 L 6.4375 0 L 0.875 0 L 0.875 -1 C 1.320312 -1.457031 1.929688 -2.078125 2.703125 -2.859375 C 3.484375 -3.648438 3.972656 -4.160156 4.171875 -4.390625 C 4.554688 -4.804688 4.820312 -5.160156 4.96875 -5.453125 C 5.125 -5.753906 5.203125 -6.046875 5.203125 -6.328125 C 5.203125 -6.796875 5.035156 -7.175781 4.703125 -7.46875 C 4.378906 -7.757812 3.957031 -7.90625 3.4375 -7.90625 C 3.0625 -7.90625 2.664062 -7.84375 2.25 -7.71875 C 1.84375 -7.59375 1.40625 -7.394531 0.9375 -7.125 L 0.9375 -8.328125 C 1.414062 -8.515625 1.859375 -8.65625 2.265625 -8.75 C 2.679688 -8.851562 3.0625 -8.90625 3.40625 -8.90625 C 4.3125 -8.90625 5.035156 -8.675781 5.578125 -8.21875 C 6.117188 -7.769531 6.390625 -7.164062 6.390625 -6.40625 C 6.390625 -6.050781 6.320312 -5.710938 6.1875 -5.390625 C 6.050781 -5.066406 5.804688 -4.6875 5.453125 -4.25 C 5.347656 -4.132812 5.035156 -3.804688 4.515625 -3.265625 C 3.992188 -2.722656 3.253906 -1.96875 2.296875 -1 Z M 2.296875 -1 "/>
</symbol>
<symbol overflow="visible" id="U0FmoR4i7-0">
<path style="stroke:none;" d=""/>
</symbol>
<symbol overflow="visible" id="U0FmoR4i7-1">
<path style="stroke:none;" d="M 5.859375 -1.71875 C 5.859375 -1.84375 5.765625 -1.84375 5.671875 -1.84375 C 5.53125 -1.84375 5.515625 -1.828125 5.453125 -1.625 C 5.140625 -0.59375 4.53125 -0.125 4.03125 -0.125 C 3.796875 -0.125 3.46875 -0.28125 3.46875 -0.90625 C 3.46875 -1.1875 3.59375 -1.703125 3.703125 -2.109375 L 4.109375 -3.75 C 4.265625 -4.375 4.59375 -5.046875 5.15625 -5.046875 C 5.203125 -5.046875 5.5 -5.046875 5.6875 -4.875 C 5.203125 -4.75 5.203125 -4.296875 5.203125 -4.296875 C 5.203125 -4.140625 5.3125 -3.90625 5.625 -3.90625 C 5.84375 -3.90625 6.21875 -4.078125 6.21875 -4.546875 C 6.21875 -5.15625 5.515625 -5.296875 5.171875 -5.296875 C 4.515625 -5.296875 4.109375 -4.71875 4 -4.484375 C 3.734375 -5.203125 3.140625 -5.296875 2.84375 -5.296875 C 1.640625 -5.296875 1 -3.734375 1 -3.453125 C 1 -3.34375 1.109375 -3.34375 1.171875 -3.34375 C 1.328125 -3.34375 1.328125 -3.34375 1.390625 -3.546875 C 1.71875 -4.578125 2.34375 -5.046875 2.8125 -5.046875 C 3.171875 -5.046875 3.390625 -4.765625 3.390625 -4.28125 C 3.390625 -4 3.25 -3.40625 3.140625 -2.96875 L 2.875 -1.875 C 2.671875 -1.09375 2.421875 -0.125 1.703125 -0.125 C 1.671875 -0.125 1.375 -0.125 1.171875 -0.296875 C 1.53125 -0.390625 1.640625 -0.703125 1.640625 -0.875 C 1.640625 -1.1875 1.390625 -1.265625 1.234375 -1.265625 C 0.9375 -1.265625 0.640625 -1.015625 0.640625 -0.609375 C 0.640625 -0.140625 1.140625 0.125 1.6875 0.125 C 2.265625 0.125 2.65625 -0.328125 2.875 -0.6875 C 3.109375 0 3.703125 0.125 4.015625 0.125 C 5.25 0.125 5.859375 -1.46875 5.859375 -1.71875 Z M 5.859375 -1.71875 "/>
</symbol>
<symbol overflow="visible" id="U0FmoR4i8-0">
<path style="stroke:none;" d=""/>
</symbol>
<symbol overflow="visible" id="U0FmoR4i8-1">
<path style="stroke:none;" d="M 8.65625 -3 C 8.65625 -3.125 8.5625 -3.234375 8.421875 -3.234375 L 4.90625 -3.234375 L 4.90625 -6.75 C 4.90625 -6.890625 4.796875 -7 4.671875 -7 C 4.53125 -7 4.421875 -6.890625 4.421875 -6.75 L 4.421875 -3.234375 L 0.90625 -3.234375 C 0.78125 -3.234375 0.671875 -3.125 0.671875 -3 C 0.671875 -2.875 0.78125 -2.765625 0.90625 -2.765625 L 4.421875 -2.765625 L 4.421875 0.75 C 4.421875 0.890625 4.53125 1 4.671875 1 C 4.796875 1 4.90625 0.890625 4.90625 0.75 L 4.90625 -2.765625 L 8.421875 -2.765625 C 8.5625 -2.765625 8.65625 -2.875 8.65625 -3 Z M 8.65625 -3 "/>
</symbol>
<symbol overflow="visible" id="U0FmoR4i9-0">
<path style="stroke:none;" d=""/>
</symbol>
<symbol overflow="visible" id="U0FmoR4i9-1">
<path style="stroke:none;" d="M 4.984375 0.03125 L 6.15625 -4.6875 C 6.171875 -4.765625 6.1875 -4.828125 6.1875 -4.859375 C 6.1875 -4.984375 6.09375 -5.171875 5.859375 -5.171875 C 5.5 -5.171875 5.40625 -4.828125 5.390625 -4.734375 L 4.515625 -1.203125 C 4.421875 -0.859375 3.953125 -0.125 3.234375 -0.125 C 2.703125 -0.125 2.59375 -0.65625 2.59375 -1.0625 C 2.59375 -1.78125 2.984375 -2.875 3.28125 -3.6875 C 3.390625 -3.9375 3.4375 -4.109375 3.4375 -4.328125 C 3.4375 -4.9375 3.046875 -5.296875 2.53125 -5.296875 C 1.421875 -5.296875 1 -3.53125 1 -3.453125 C 1 -3.34375 1.109375 -3.34375 1.171875 -3.34375 C 1.328125 -3.34375 1.34375 -3.359375 1.390625 -3.53125 C 1.484375 -3.90625 1.8125 -5.046875 2.515625 -5.046875 C 2.640625 -5.046875 2.765625 -5 2.765625 -4.6875 C 2.765625 -4.40625 2.65625 -4.078125 2.484375 -3.609375 C 2.171875 -2.765625 1.859375 -1.890625 1.859375 -1.265625 C 1.859375 -0.21875 2.5625 0.125 3.203125 0.125 C 3.75 0.125 4.125 -0.15625 4.28125 -0.3125 C 3.828125 1.671875 2.9375 2.203125 2.34375 2.203125 C 1.765625 2.203125 1.59375 1.734375 1.59375 1.6875 C 1.59375 1.6875 1.609375 1.65625 1.6875 1.640625 C 2.0625 1.578125 2.203125 1.265625 2.203125 1.0625 C 2.203125 0.8125 2.015625 0.6875 1.796875 0.6875 C 1.65625 0.6875 1.1875 0.75 1.1875 1.421875 C 1.1875 2.046875 1.6875 2.453125 2.34375 2.453125 C 3.59375 2.453125 4.6875 1.21875 4.984375 0.03125 Z M 4.984375 0.03125 "/>
</symbol>
<symbol overflow="visible" id="U0FmoR4i10-0">
<path style="stroke:none;" d="M 0.59375 0 L 5.40625 0 L 5.40625 -6.4375 L 0.59375 -6.4375 Z M 1.203125 -0.59375 L 1.203125 -5.84375 L 4.796875 -5.84375 L 4.796875 -0.59375 Z M 1.203125 -0.59375 "/>
</symbol>
<symbol overflow="visible" id="U0FmoR4i10-1">
<path style="stroke:none;" d="M 4.3125 -1.53125 C 4.3125 -2.171875 3.953125 -2.53125 3.8125 -2.671875 C 3.421875 -3.0625 2.953125 -3.15625 2.453125 -3.25 C 1.78125 -3.390625 0.96875 -3.546875 0.96875 -4.234375 C 0.96875 -4.65625 1.28125 -5.140625 2.3125 -5.140625 C 3.640625 -5.140625 3.703125 -4.0625 3.71875 -3.703125 C 3.734375 -3.59375 3.859375 -3.59375 3.859375 -3.59375 C 4.015625 -3.59375 4.015625 -3.640625 4.015625 -3.875 L 4.015625 -5.09375 C 4.015625 -5.296875 4.015625 -5.375 3.890625 -5.375 C 3.828125 -5.375 3.796875 -5.375 3.640625 -5.234375 C 3.609375 -5.1875 3.484375 -5.078125 3.4375 -5.046875 C 2.984375 -5.375 2.5 -5.375 2.3125 -5.375 C 0.859375 -5.375 0.390625 -4.578125 0.390625 -3.90625 C 0.390625 -3.484375 0.59375 -3.140625 0.90625 -2.875 C 1.296875 -2.5625 1.625 -2.5 2.5 -2.328125 C 2.765625 -2.28125 3.75 -2.09375 3.75 -1.21875 C 3.75 -0.609375 3.328125 -0.125 2.390625 -0.125 C 1.375 -0.125 0.953125 -0.8125 0.71875 -1.84375 C 0.6875 -1.984375 0.671875 -2.046875 0.546875 -2.046875 C 0.390625 -2.046875 0.390625 -1.953125 0.390625 -1.734375 L 0.390625 -0.15625 C 0.390625 0.046875 0.390625 0.125 0.53125 0.125 C 0.59375 0.125 0.59375 0.125 0.828125 -0.109375 C 0.859375 -0.125 0.859375 -0.15625 1.0625 -0.390625 C 1.59375 0.125 2.140625 0.125 2.390625 0.125 C 3.765625 0.125 4.3125 -0.671875 4.3125 -1.53125 Z M 4.3125 -1.53125 "/>
</symbol>
<symbol overflow="visible" id="U0FmoR4i10-2">
<path style="stroke:none;" d="M 2.96875 0 L 2.96875 -0.375 C 2.171875 -0.375 2.125 -0.4375 2.125 -0.90625 L 2.125 -5.296875 L 0.4375 -5.171875 L 0.4375 -4.796875 C 1.21875 -4.796875 1.328125 -4.734375 1.328125 -4.140625 L 1.328125 -0.90625 C 1.328125 -0.375 1.203125 -0.375 0.390625 -0.375 L 0.390625 0 L 1.71875 -0.03125 C 2.140625 -0.03125 2.5625 -0.015625 2.96875 0 Z M 2.296875 -7.25 C 2.296875 -7.578125 2.03125 -7.890625 1.671875 -7.890625 C 1.265625 -7.890625 1.015625 -7.546875 1.015625 -7.25 C 1.015625 -6.921875 1.296875 -6.609375 1.65625 -6.609375 C 2.0625 -6.609375 2.296875 -6.953125 2.296875 -7.25 Z M 2.296875 -7.25 "/>
</symbol>
<symbol overflow="visible" id="U0FmoR4i10-3">
<path style="stroke:none;" d="M 6.421875 0 L 6.421875 -0.375 C 5.796875 -0.375 5.5 -0.375 5.484375 -0.734375 L 5.484375 -3.03125 C 5.484375 -4.0625 5.484375 -4.421875 5.109375 -4.859375 C 4.9375 -5.0625 4.546875 -5.296875 3.859375 -5.296875 C 2.96875 -5.296875 2.40625 -4.78125 2.078125 -4.046875 L 2.078125 -5.296875 L 0.390625 -5.171875 L 0.390625 -4.796875 C 1.21875 -4.796875 1.3125 -4.71875 1.3125 -4.125 L 1.3125 -0.90625 C 1.3125 -0.375 1.1875 -0.375 0.390625 -0.375 L 0.390625 0 L 1.734375 -0.03125 L 3.078125 0 L 3.078125 -0.375 C 2.28125 -0.375 2.140625 -0.375 2.140625 -0.90625 L 2.140625 -3.125 C 2.140625 -4.375 3 -5.046875 3.765625 -5.046875 C 4.53125 -5.046875 4.65625 -4.390625 4.65625 -3.703125 L 4.65625 -0.90625 C 4.65625 -0.375 4.53125 -0.375 3.71875 -0.375 L 3.71875 0 L 5.078125 -0.03125 Z M 6.421875 0 "/>
</symbol>
<symbol overflow="visible" id="U0FmoR4i11-0">
<path style="stroke:none;" d=""/>
</symbol>
<symbol overflow="visible" id="U0FmoR4i11-1">
<path style="stroke:none;" d="M 3.984375 2.859375 C 3.984375 2.8125 3.953125 2.78125 3.9375 2.765625 C 2.6875 1.828125 1.859375 -0.578125 1.859375 -2.5 L 1.859375 -3.5 C 1.859375 -5.421875 2.6875 -7.828125 3.9375 -8.765625 C 3.953125 -8.78125 3.984375 -8.8125 3.984375 -8.859375 C 3.984375 -8.921875 3.921875 -8.96875 3.859375 -8.96875 C 3.84375 -8.96875 3.8125 -8.96875 3.796875 -8.953125 C 2.46875 -7.953125 1.21875 -5.5625 1.21875 -3.5 L 1.21875 -2.5 C 1.21875 -0.4375 2.46875 1.953125 3.796875 2.953125 C 3.8125 2.96875 3.84375 2.96875 3.859375 2.96875 C 3.921875 2.96875 3.984375 2.921875 3.984375 2.859375 Z M 3.984375 2.859375 "/>
</symbol>
<symbol overflow="visible" id="U0FmoR4i12-0">
<path style="stroke:none;" d=""/>
</symbol>
<symbol overflow="visible" id="U0FmoR4i12-1">
<path style="stroke:none;" d="M 5.8125 -1.71875 C 5.8125 -1.84375 5.71875 -1.84375 5.625 -1.84375 C 5.484375 -1.84375 5.46875 -1.828125 5.40625 -1.5625 C 5.25 -0.953125 5.015625 -0.125 4.484375 -0.125 C 4.15625 -0.125 4.140625 -0.40625 4.140625 -0.640625 C 4.140625 -0.921875 4.21875 -1.265625 4.234375 -1.3125 C 4.296875 -1.578125 4.296875 -1.578125 4.296875 -1.734375 C 4.296875 -2.5625 3.453125 -2.875 2.703125 -2.984375 C 2.96875 -3.15625 3.234375 -3.40625 3.546875 -3.78125 C 4.171875 -4.484375 4.640625 -5.046875 5.25 -5.046875 C 5.46875 -5.046875 5.5625 -4.890625 5.5625 -4.890625 C 5.0625 -4.8125 5 -4.390625 5 -4.296875 C 5 -4.140625 5.109375 -3.90625 5.421875 -3.90625 C 5.6875 -3.90625 6.03125 -4.125 6.03125 -4.578125 C 6.03125 -4.890625 5.8125 -5.296875 5.265625 -5.296875 C 4.625 -5.296875 4.109375 -4.796875 3.703125 -4.3125 C 3.03125 -3.53125 2.828125 -3.34375 2.40625 -3.125 L 3.640625 -8.03125 C 3.640625 -8.0625 3.671875 -8.1875 3.671875 -8.1875 C 3.671875 -8.296875 3.59375 -8.328125 3.5 -8.328125 C 3.46875 -8.328125 3.34375 -8.3125 3.3125 -8.296875 L 2.125 -8.203125 C 1.984375 -8.203125 1.84375 -8.1875 1.84375 -7.953125 C 1.84375 -7.828125 1.96875 -7.828125 2.140625 -7.828125 C 2.71875 -7.828125 2.734375 -7.734375 2.734375 -7.625 C 2.734375 -7.578125 2.703125 -7.421875 2.703125 -7.421875 L 0.921875 -0.34375 C 0.90625 -0.3125 0.90625 -0.1875 0.90625 -0.1875 C 0.90625 -0.046875 1.015625 0.125 1.234375 0.125 C 1.59375 0.125 1.6875 -0.203125 1.703125 -0.3125 L 2.3125 -2.75 C 2.765625 -2.6875 3.53125 -2.4375 3.53125 -1.734375 C 3.53125 -1.65625 3.53125 -1.609375 3.484375 -1.4375 C 3.4375 -1.234375 3.4375 -1.15625 3.4375 -1.03125 C 3.4375 -0.171875 4.015625 0.125 4.453125 0.125 C 4.984375 0.125 5.25 -0.265625 5.375 -0.484375 C 5.640625 -0.953125 5.8125 -1.6875 5.8125 -1.71875 Z M 5.8125 -1.71875 "/>
</symbol>
<symbol overflow="visible" id="U0FmoR4i13-0">
<path style="stroke:none;" d="M 0.359375 0 L 3.234375 0 L 3.234375 -3.875 L 0.359375 -3.875 Z M 0.71875 -0.359375 L 0.71875 -3.515625 L 2.875 -3.515625 L 2.875 -0.359375 Z M 0.71875 -0.359375 "/>
</symbol>
<symbol overflow="visible" id="U0FmoR4i13-1">
<path style="stroke:none;" d="M 3.234375 -1.25 L 3.046875 -1.25 C 3.015625 -1.03125 2.96875 -0.71875 2.890625 -0.609375 C 2.84375 -0.546875 2.375 -0.546875 2.21875 -0.546875 L 0.921875 -0.546875 L 1.671875 -1.296875 C 2.796875 -2.296875 3.234375 -2.671875 3.234375 -3.40625 C 3.234375 -4.21875 2.578125 -4.796875 1.703125 -4.796875 C 0.890625 -4.796875 0.359375 -4.140625 0.359375 -3.5 C 0.359375 -3.09375 0.71875 -3.09375 0.734375 -3.09375 C 0.859375 -3.09375 1.109375 -3.171875 1.109375 -3.46875 C 1.109375 -3.65625 0.984375 -3.84375 0.734375 -3.84375 C 0.671875 -3.84375 0.65625 -3.84375 0.640625 -3.84375 C 0.8125 -4.3125 1.203125 -4.578125 1.609375 -4.578125 C 2.265625 -4.578125 2.578125 -3.984375 2.578125 -3.40625 C 2.578125 -2.828125 2.21875 -2.25 1.828125 -1.8125 L 0.4375 -0.265625 C 0.359375 -0.1875 0.359375 -0.171875 0.359375 0 L 3.03125 0 Z M 3.234375 -1.25 "/>
</symbol>
<symbol overflow="visible" id="U0FmoR4i14-0">
<path style="stroke:none;" d=""/>
</symbol>
<symbol overflow="visible" id="U0FmoR4i14-1">
<path style="stroke:none;" d="M 3.453125 -2.5 L 3.453125 -3.5 C 3.453125 -5.5625 2.203125 -7.953125 0.875 -8.953125 C 0.859375 -8.96875 0.828125 -8.96875 0.796875 -8.96875 C 0.75 -8.96875 0.6875 -8.921875 0.6875 -8.859375 C 0.6875 -8.8125 0.703125 -8.78125 0.734375 -8.765625 C 1.984375 -7.828125 2.8125 -5.421875 2.8125 -3.5 L 2.8125 -2.5 C 2.8125 -0.578125 1.984375 1.828125 0.734375 2.765625 C 0.703125 2.78125 0.6875 2.8125 0.6875 2.859375 C 0.6875 2.921875 0.75 2.96875 0.796875 2.96875 C 0.828125 2.96875 0.859375 2.96875 0.875 2.953125 C 2.203125 1.953125 3.453125 -0.4375 3.453125 -2.5 Z M 3.453125 -2.5 "/>
</symbol>
</g>
</defs>
<g id="surface1">
<rect x="0" y="0" width="600" height="450" style="fill:rgb(100%,100%,100%);fill-opacity:1;stroke:none;"/>
<path style=" stroke:none;fill-rule:nonzero;fill:rgb(100%,100%,100%);fill-opacity:1;" d="M 30 417.75 L 588 417.75 L 588 51.75 L 30 51.75 Z M 30 417.75 "/>
<path style="fill:none;stroke-width:1;stroke-linecap:butt;stroke-linejoin:miter;stroke:rgb(0%,0%,0%);stroke-opacity:0.12;stroke-miterlimit:10;" d="M 189.21875 557 L 189.21875 69 " transform="matrix(0.75,0,0,0.75,0,0)"/>
<path style="fill:none;stroke-width:1;stroke-linecap:butt;stroke-linejoin:miter;stroke:rgb(0%,0%,0%);stroke-opacity:0.12;stroke-miterlimit:10;" d="M 363.473958 557 L 363.473958 69 " transform="matrix(0.75,0,0,0.75,0,0)"/>
<path style="fill:none;stroke-width:1;stroke-linecap:butt;stroke-linejoin:miter;stroke:rgb(0%,0%,0%);stroke-opacity:0.12;stroke-miterlimit:10;" d="M 537.729167 557 L 537.729167 69 " transform="matrix(0.75,0,0,0.75,0,0)"/>
<path style="fill:none;stroke-width:1;stroke-linecap:butt;stroke-linejoin:miter;stroke:rgb(0%,0%,0%);stroke-opacity:0.12;stroke-miterlimit:10;" d="M 711.979167 557 L 711.979167 69 " transform="matrix(0.75,0,0,0.75,0,0)"/>
<path style="fill:none;stroke-width:1;stroke-linecap:butt;stroke-linejoin:miter;stroke:rgb(0%,0%,0%);stroke-opacity:0.12;stroke-miterlimit:10;" d="M 40 461.979167 L 784 461.979167 " transform="matrix(0.75,0,0,0.75,0,0)"/>
<path style="fill:none;stroke-width:1;stroke-linecap:butt;stroke-linejoin:miter;stroke:rgb(0%,0%,0%);stroke-opacity:0.12;stroke-miterlimit:10;" d="M 40 317.505208 L 784 317.505208 " transform="matrix(0.75,0,0,0.75,0,0)"/>
<path style="fill:none;stroke-width:1;stroke-linecap:butt;stroke-linejoin:miter;stroke:rgb(0%,0%,0%);stroke-opacity:0.12;stroke-miterlimit:10;" d="M 40 173.026042 L 784 173.026042 " transform="matrix(0.75,0,0,0.75,0,0)"/>
<g style="fill:rgb(0%,0%,0%);fill-opacity:1;">
  <use xlink:href="#U0FmoR4i0-1" x="136.851562" y="435.640625"/>
</g>
<g style="fill:rgb(0%,0%,0%);fill-opacity:1;">
  <use xlink:href="#U0FmoR4i1-1" x="141.183594" y="435.640625"/>
</g>
<g style="fill:rgb(0%,0%,0%);fill-opacity:1;">
  <use xlink:href="#U0FmoR4i0-2" x="269.1875" y="435.640625"/>
</g>
<g style="fill:rgb(0%,0%,0%);fill-opacity:1;">
  <use xlink:href="#U0FmoR4i2-1" x="400.03125" y="435.640625"/>
</g>
<g style="fill:rgb(0%,0%,0%);fill-opacity:1;">
  <use xlink:href="#U0FmoR4i0-3" x="530.769531" y="435.640625"/>
</g>
<g style="fill:rgb(0%,0%,0%);fill-opacity:1;">
  <use xlink:href="#U0FmoR4i3-1" x="11.867188" y="350.640625"/>
</g>
<g style="fill:rgb(0%,0%,0%);fill-opacity:1;">
  <use xlink:href="#U0FmoR4i4-1" x="16.195312" y="350.640625"/>
</g>
<g style="fill:rgb(0%,0%,0%);fill-opacity:1;">
  <use xlink:href="#U0FmoR4i5-1" x="15.703125" y="242.28125"/>
</g>
<g style="fill:rgb(0%,0%,0%);fill-opacity:1;">
  <use xlink:href="#U0FmoR4i6-1" x="16.195312" y="133.921875"/>
</g>
<g style="fill:rgb(0%,0%,0%);fill-opacity:1;">
  <use xlink:href="#U0FmoR4i7-1" x="297.664062" y="25.667969"/>
</g>
<g style="fill:rgb(0%,0%,0%);fill-opacity:1;">
  <use xlink:href="#U0FmoR4i8-1" x="305.632812" y="25.667969"/>
</g>
<g style="fill:rgb(0%,0%,0%);fill-opacity:1;">
  <use xlink:href="#U0FmoR4i9-1" x="317.367188" y="25.667969"/>
</g>
<g style="fill:rgb(0%,0%,0%);fill-opacity:1;">
  <use xlink:href="#U0FmoR4i10-1" x="294.5" y="45.269531"/>
</g>
<g style="fill:rgb(0%,0%,0%);fill-opacity:1;">
  <use xlink:href="#U0FmoR4i10-2" x="299.230469" y="45.269531"/>
</g>
<g style="fill:rgb(0%,0%,0%);fill-opacity:1;">
  <use xlink:href="#U0FmoR4i10-3" x="302.566406" y="45.269531"/>
</g>
<g style="fill:rgb(0%,0%,0%);fill-opacity:1;">
  <use xlink:href="#U0FmoR4i11-1" x="309.238281" y="45.269531"/>
</g>
<g style="fill:rgb(0%,0%,0%);fill-opacity:1;">
  <use xlink:href="#U0FmoR4i12-1" x="313.90625" y="45.269531"/>
</g>
<g style="fill:rgb(0%,0%,0%);fill-opacity:1;">
  <use xlink:href="#U0FmoR4i13-1" x="319.425781" y="38.09375"/>
</g>
<g style="fill:rgb(0%,0%,0%);fill-opacity:1;">
  <use xlink:href="#U0FmoR4i14-1" x="323.023438" y="45.269531"/>
</g>
<path style="fill:none;stroke-width:0.64;stroke-linecap:round;stroke-linejoin:miter;stroke:rgb(0%,0%,0%);stroke-opacity:1;stroke-miterlimit:10;" d="M 390.942708 40.947917 L 436.505208 40.947917 " transform="matrix(0.75,0,0,0.75,0,0)"/>
<path style=" stroke:none;fill-rule:nonzero;fill:rgb(0%,44.705883%,69.803923%);fill-opacity:1;" d="M 202.308594 237.527344 C 202.308594 242.027344 195.558594 242.027344 195.558594 237.527344 C 195.558594 233.027344 202.308594 233.027344 202.308594 237.527344 "/>
<path style=" stroke:none;fill-rule:nonzero;fill:rgb(0%,44.705883%,69.803923%);fill-opacity:1;" d="M 114.652344 261 C 114.652344 265.5 107.902344 265.5 107.902344 261 C 107.902344 256.5 114.652344 256.5 114.652344 261 "/>
<path style=" stroke:none;fill-rule:nonzero;fill:rgb(0%,44.705883%,69.803923%);fill-opacity:1;" d="M 380.699219 206.097656 C 380.699219 210.597656 373.949219 210.597656 373.949219 206.097656 C 373.949219 201.597656 380.699219 201.597656 380.699219 206.097656 "/>
<path style=" stroke:none;fill-rule:nonzero;fill:rgb(0%,44.705883%,69.803923%);fill-opacity:1;" d="M 268.832031 214.046875 C 268.832031 218.546875 262.082031 218.546875 262.082031 214.046875 C 262.082031 209.546875 268.832031 209.546875 268.832031 214.046875 "/>
<path style=" stroke:none;fill-rule:nonzero;fill:rgb(0%,44.705883%,69.803923%);fill-opacity:1;" d="M 273.867188 213.367188 C 273.867188 217.867188 267.117188 217.867188 267.117188 213.367188 C 267.117188 208.867188 273.867188 208.867188 273.867188 213.367188 "/>
<path style=" stroke:none;fill-rule:nonzero;fill:rgb(0%,44.705883%,69.803923%);fill-opacity:1;" d="M 366.84375 308.058594 C 366.84375 312.558594 360.09375 312.558594 360.09375 308.058594 C 360.09375 303.558594 366.84375 303.558594 366.84375 308.058594 "/>
<path style=" stroke:none;fill-rule:nonzero;fill:rgb(0%,44.705883%,69.803923%);fill-opacity:1;" d="M 407.144531 219.84375 C 407.144531 224.34375 400.394531 224.34375 400.394531 219.84375 C 400.394531 215.34375 407.144531 215.34375 407.144531 219.84375 "/>
<path style=" stroke:none;fill-rule:nonzero;fill:rgb(0%,44.705883%,69.803923%);fill-opacity:1;" d="M 566.011719 251.117188 C 566.011719 255.617188 559.261719 255.617188 559.261719 251.117188 C 559.261719 246.617188 566.011719 246.617188 566.011719 251.117188 "/>
<path style=" stroke:none;fill-rule:nonzero;fill:rgb(0%,44.705883%,69.803923%);fill-opacity:1;" d="M 288.300781 271.792969 C 288.300781 276.292969 281.550781 276.292969 281.550781 271.792969 C 281.550781 267.292969 288.300781 267.292969 288.300781 271.792969 "/>
<path style=" stroke:none;fill-rule:nonzero;fill:rgb(0%,44.705883%,69.803923%);fill-opacity:1;" d="M 166.332031 218.640625 C 166.332031 223.140625 159.582031 223.140625 159.582031 218.640625 C 159.582031 214.140625 166.332031 214.140625 166.332031 218.640625 "/>
<path style=" stroke:none;fill-rule:nonzero;fill:rgb(0%,44.705883%,69.803923%);fill-opacity:1;" d="M 337.992188 254.203125 C 337.992188 258.703125 331.242188 258.703125 331.242188 254.203125 C 331.242188 249.703125 337.992188 249.703125 337.992188 254.203125 "/>
<path style=" stroke:none;fill-rule:nonzero;fill:rgb(0%,44.705883%,69.803923%);fill-opacity:1;" d="M 271.511719 221.648438 C 271.511719 226.148438 264.761719 226.148438 264.761719 221.648438 C 264.761719 217.148438 271.511719 217.148438 271.511719 221.648438 "/>
<path style=" stroke:none;fill-rule:nonzero;fill:rgb(0%,44.705883%,69.803923%);fill-opacity:1;" d="M 58.738281 203.585938 C 58.738281 208.085938 51.988281 208.085938 51.988281 203.585938 C 51.988281 199.085938 58.738281 199.085938 58.738281 203.585938 "/>
<path style=" stroke:none;fill-rule:nonzero;fill:rgb(0%,44.705883%,69.803923%);fill-opacity:1;" d="M 413.691406 196.878906 C 413.691406 201.378906 406.941406 201.378906 406.941406 196.878906 C 406.941406 192.378906 413.691406 192.378906 413.691406 196.878906 "/>
<path style=" stroke:none;fill-rule:nonzero;fill:rgb(0%,44.705883%,69.803923%);fill-opacity:1;" d="M 238.878906 266.984375 C 238.878906 271.484375 232.128906 271.484375 232.128906 266.984375 C 232.128906 262.484375 238.878906 262.484375 238.878906 266.984375 "/>
<path style=" stroke:none;fill-rule:nonzero;fill:rgb(0%,44.705883%,69.803923%);fill-opacity:1;" d="M 284.617188 226.3125 C 284.617188 230.8125 277.867188 230.8125 277.867188 226.3125 C 277.867188 221.8125 284.617188 221.8125 284.617188 226.3125 "/>
<path style=" stroke:none;fill-rule:nonzero;fill:rgb(0%,44.705883%,69.803923%);fill-opacity:1;" d="M 184.601562 206.578125 C 184.601562 211.078125 177.851562 211.078125 177.851562 206.578125 C 177.851562 202.078125 184.601562 202.078125 184.601562 206.578125 "/>
<path style=" stroke:none;fill-rule:nonzero;fill:rgb(0%,44.705883%,69.803923%);fill-opacity:1;" d="M 245.492188 184.835938 C 245.492188 189.335938 238.742188 189.335938 238.742188 184.835938 C 238.742188 180.335938 245.492188 180.335938 245.492188 184.835938 "/>
<path style=" stroke:none;fill-rule:nonzero;fill:rgb(0%,44.705883%,69.803923%);fill-opacity:1;" d="M 390.050781 224.425781 C 390.050781 228.925781 383.300781 228.925781 383.300781 224.425781 C 383.300781 219.925781 390.050781 219.925781 390.050781 224.425781 "/>
<path style=" stroke:none;fill-rule:nonzero;fill:rgb(0%,44.705883%,69.803923%);fill-opacity:1;" d="M 369.652344 223.011719 C 369.652344 227.511719 362.902344 227.511719 362.902344 223.011719 C 362.902344 218.511719 369.652344 218.511719 369.652344 223.011719 "/>
<path style=" stroke:none;fill-rule:nonzero;fill:rgb(0%,44.705883%,69.803923%);fill-opacity:1;" d="M 392.203125 309.121094 C 392.203125 313.621094 385.453125 313.621094 385.453125 309.121094 C 385.453125 304.621094 392.203125 304.621094 392.203125 309.121094 "/>
<path style=" stroke:none;fill-rule:nonzero;fill:rgb(0%,44.705883%,69.803923%);fill-opacity:1;" d="M 62.578125 227.792969 C 62.578125 232.292969 55.828125 232.292969 55.828125 227.792969 C 55.828125 223.292969 62.578125 223.292969 62.578125 227.792969 "/>
<path style=" stroke:none;fill-rule:nonzero;fill:rgb(0%,44.705883%,69.803923%);fill-opacity:1;" d="M 176.605469 337.207031 C 176.605469 341.707031 169.855469 341.707031 169.855469 337.207031 C 169.855469 332.707031 176.605469 332.707031 176.605469 337.207031 "/>
<path style=" stroke:none;fill-rule:nonzero;fill:rgb(0%,44.705883%,69.803923%);fill-opacity:1;" d="M 218.21875 207.371094 C 218.21875 211.871094 211.46875 211.871094 211.46875 207.371094 C 211.46875 202.871094 218.21875 202.871094 218.21875 207.371094 "/>
<path style=" stroke:none;fill-rule:nonzero;fill:rgb(0%,44.705883%,69.803923%);fill-opacity:1;" d="M 219.082031 171.441406 C 219.082031 175.941406 212.332031 175.941406 212.332031 171.441406 C 212.332031 166.941406 219.082031 166.941406 219.082031 171.441406 "/>
<path style=" stroke:none;fill-rule:nonzero;fill:rgb(0%,44.705883%,69.803923%);fill-opacity:1;" d="M 255.59375 263.984375 C 255.59375 268.484375 248.84375 268.484375 248.84375 263.984375 C 248.84375 259.484375 255.59375 259.484375 255.59375 263.984375 "/>
<path style=" stroke:none;fill-rule:nonzero;fill:rgb(0%,44.705883%,69.803923%);fill-opacity:1;" d="M 212.578125 285.300781 C 212.578125 289.800781 205.828125 289.800781 205.828125 285.300781 C 205.828125 280.800781 212.578125 280.800781 212.578125 285.300781 "/>
<path style=" stroke:none;fill-rule:nonzero;fill:rgb(0%,44.705883%,69.803923%);fill-opacity:1;" d="M 228.515625 302.351562 C 228.515625 306.851562 221.765625 306.851562 221.765625 302.351562 C 221.765625 297.851562 228.515625 297.851562 228.515625 302.351562 "/>
<path style=" stroke:none;fill-rule:nonzero;fill:rgb(0%,44.705883%,69.803923%);fill-opacity:1;" d="M 259.585938 149.902344 C 259.585938 154.402344 252.835938 154.402344 252.835938 149.902344 C 252.835938 145.402344 259.585938 145.402344 259.585938 149.902344 "/>
<path style=" stroke:none;fill-rule:nonzero;fill:rgb(0%,44.705883%,69.803923%);fill-opacity:1;" d="M 435.128906 199.054688 C 435.128906 203.554688 428.378906 203.554688 428.378906 199.054688 C 428.378906 194.554688 435.128906 194.554688 435.128906 199.054688 "/>
<path style=" stroke:none;fill-rule:nonzero;fill:rgb(0%,44.705883%,69.803923%);fill-opacity:1;" d="M 221.117188 303.703125 C 221.117188 308.203125 214.367188 308.203125 214.367188 303.703125 C 214.367188 299.203125 221.117188 299.203125 221.117188 303.703125 "/>
<path style=" stroke:none;fill-rule:nonzero;fill:rgb(0%,44.705883%,69.803923%);fill-opacity:1;" d="M 365.132812 401.113281 C 365.132812 405.613281 358.382812 405.613281 358.382812 401.113281 C 358.382812 396.613281 365.132812 396.613281 365.132812 401.113281 "/>
<path style=" stroke:none;fill-rule:nonzero;fill:rgb(0%,44.705883%,69.803923%);fill-opacity:1;" d="M 313.6875 154.421875 C 313.6875 158.921875 306.9375 158.921875 306.9375 154.421875 C 306.9375 149.921875 313.6875 149.921875 313.6875 154.421875 "/>
<path style=" stroke:none;fill-rule:nonzero;fill:rgb(0%,44.705883%,69.803923%);fill-opacity:1;" d="M 236.222656 249.628906 C 236.222656 254.128906 229.472656 254.128906 229.472656 249.628906 C 229.472656 245.128906 236.222656 245.128906 236.222656 249.628906 "/>
<path style=" stroke:none;fill-rule:nonzero;fill:rgb(0%,44.705883%,69.803923%);fill-opacity:1;" d="M 418.515625 266.703125 C 418.515625 271.203125 411.765625 271.203125 411.765625 266.703125 C 411.765625 262.203125 418.515625 262.203125 418.515625 266.703125 "/>
<path style=" stroke:none;fill-rule:nonzero;fill:rgb(0%,44.705883%,69.803923%);fill-opacity:1;" d="M 286.78125 281.863281 C 286.78125 286.363281 280.03125 286.363281 280.03125 281.863281 C 280.03125 277.363281 286.78125 277.363281 286.78125 281.863281 "/>
<path style=" stroke:none;fill-rule:nonzero;fill:rgb(0%,44.705883%,69.803923%);fill-opacity:1;" d="M 299.136719 134.199219 C 299.136719 138.699219 292.386719 138.699219 292.386719 134.199219 C 292.386719 129.699219 299.136719 129.699219 299.136719 134.199219 "/>
<path style=" stroke:none;fill-rule:nonzero;fill:rgb(0%,44.705883%,69.803923%);fill-opacity:1;" d="M 252.765625 267.65625 C 252.765625 272.15625 246.015625 272.15625 246.015625 267.65625 C 246.015625 263.15625 252.765625 263.15625 252.765625 267.65625 "/>
<path style=" stroke:none;fill-rule:nonzero;fill:rgb(0%,44.705883%,69.803923%);fill-opacity:1;" d="M 241.203125 217.078125 C 241.203125 221.578125 234.453125 221.578125 234.453125 217.078125 C 234.453125 212.578125 241.203125 212.578125 241.203125 217.078125 "/>
<path style=" stroke:none;fill-rule:nonzero;fill:rgb(0%,44.705883%,69.803923%);fill-opacity:1;" d="M 256.148438 257.265625 C 256.148438 261.765625 249.398438 261.765625 249.398438 257.265625 C 249.398438 252.765625 256.148438 252.765625 256.148438 257.265625 "/>
<path style=" stroke:none;fill-rule:nonzero;fill:rgb(0%,44.705883%,69.803923%);fill-opacity:1;" d="M 449.878906 289.820312 C 449.878906 294.320312 443.128906 294.320312 443.128906 289.820312 C 443.128906 285.320312 449.878906 285.320312 449.878906 289.820312 "/>
<path style=" stroke:none;fill-rule:nonzero;fill:rgb(0%,44.705883%,69.803923%);fill-opacity:1;" d="M 343.378906 239.179688 C 343.378906 243.679688 336.628906 243.679688 336.628906 239.179688 C 336.628906 234.679688 343.378906 234.679688 343.378906 239.179688 "/>
<path style=" stroke:none;fill-rule:nonzero;fill:rgb(0%,44.705883%,69.803923%);fill-opacity:1;" d="M 424.355469 178.820312 C 424.355469 183.320312 417.605469 183.320312 417.605469 178.820312 C 417.605469 174.320312 424.355469 174.320312 424.355469 178.820312 "/>
<path style=" stroke:none;fill-rule:nonzero;fill:rgb(0%,44.705883%,69.803923%);fill-opacity:1;" d="M 333.230469 362.109375 C 333.230469 366.609375 326.480469 366.609375 326.480469 362.109375 C 326.480469 357.609375 333.230469 357.609375 333.230469 362.109375 "/>
<path style=" stroke:none;fill-rule:nonzero;fill:rgb(0%,44.705883%,69.803923%);fill-opacity:1;" d="M 104.761719 68.386719 C 104.761719 72.886719 98.011719 72.886719 98.011719 68.386719 C 98.011719 63.886719 104.761719 63.886719 104.761719 68.386719 "/>
<path style=" stroke:none;fill-rule:nonzero;fill:rgb(0%,44.705883%,69.803923%);fill-opacity:1;" d="M 397.183594 276.78125 C 397.183594 281.28125 390.433594 281.28125 390.433594 276.78125 C 390.433594 272.28125 397.183594 272.28125 397.183594 276.78125 "/>
<path style=" stroke:none;fill-rule:nonzero;fill:rgb(0%,44.705883%,69.803923%);fill-opacity:1;" d="M 399.515625 161.464844 C 399.515625 165.964844 392.765625 165.964844 392.765625 161.464844 C 392.765625 156.964844 399.515625 156.964844 399.515625 161.464844 "/>
<path style=" stroke:none;fill-rule:nonzero;fill:rgb(0%,44.705883%,69.803923%);fill-opacity:1;" d="M 438.09375 206.589844 C 438.09375 211.089844 431.34375 211.089844 431.34375 206.589844 C 431.34375 202.089844 438.09375 202.089844 438.09375 206.589844 "/>
<path style=" stroke:none;fill-rule:nonzero;fill:rgb(0%,44.705883%,69.803923%);fill-opacity:1;" d="M 473.546875 163.097656 C 473.546875 167.597656 466.796875 167.597656 466.796875 163.097656 C 466.796875 158.597656 473.546875 158.597656 473.546875 163.097656 "/>
<path style=" stroke:none;fill-rule:nonzero;fill:rgb(0%,44.705883%,69.803923%);fill-opacity:1;" d="M 323.53125 193.128906 C 323.53125 197.628906 316.78125 197.628906 316.78125 193.128906 C 316.78125 188.628906 323.53125 188.628906 323.53125 193.128906 "/>
<path style="fill:none;stroke-width:1;stroke-linecap:butt;stroke-linejoin:miter;stroke:rgb(0%,0%,0%);stroke-opacity:1;stroke-miterlimit:10;" d="M 189.21875 557.5 L 189.21875 563.5 " transform="matrix(0.75,0,0,0.75,0,0)"/>
<path style="fill:none;stroke-width:1;stroke-linecap:butt;stroke-linejoin:miter;stroke:rgb(0%,0%,0%);stroke-opacity:1;stroke-miterlimit:10;" d="M 363.473958 557.5 L 363.473958 563.5 " transform="matrix(0.75,0,0,0.75,0,0)"/>
<path style="fill:none;stroke-width:1;stroke-linecap:butt;stroke-linejoin:miter;stroke:rgb(0%,0%,0%);stroke-opacity:1;stroke-miterlimit:10;" d="M 537.729167 557.5 L 537.729167 563.5 " transform="matrix(0.75,0,0,0.75,0,0)"/>
<path style="fill:none;stroke-width:1;stroke-linecap:butt;stroke-linejoin:miter;stroke:rgb(0%,0%,0%);stroke-opacity:1;stroke-miterlimit:10;" d="M 711.979167 557.5 L 711.979167 563.5 " transform="matrix(0.75,0,0,0.75,0,0)"/>
<path style="fill:none;stroke-width:1;stroke-linecap:butt;stroke-linejoin:miter;stroke:rgb(0%,0%,0%);stroke-opacity:1;stroke-miterlimit:10;" d="M 39.5 461.979167 L 33.5 461.979167 " transform="matrix(0.75,0,0,0.75,0,0)"/>
<path style="fill:none;stroke-width:1;stroke-linecap:butt;stroke-linejoin:miter;stroke:rgb(0%,0%,0%);stroke-opacity:1;stroke-miterlimit:10;" d="M 39.5 317.505208 L 33.5 317.505208 " transform="matrix(0.75,0,0,0.75,0,0)"/>
<path style="fill:none;stroke-width:1;stroke-linecap:butt;stroke-linejoin:miter;stroke:rgb(0%,0%,0%);stroke-opacity:1;stroke-miterlimit:10;" d="M 39.5 173.026042 L 33.5 173.026042 " transform="matrix(0.75,0,0,0.75,0,0)"/>
<path style="fill:none;stroke-width:1;stroke-linecap:butt;stroke-linejoin:miter;stroke:rgb(0%,0%,0%);stroke-opacity:1;stroke-miterlimit:10;" d="M 39.5 557 L 784.5 557 " transform="matrix(0.75,0,0,0.75,0,0)"/>
<path style="fill:none;stroke-width:1;stroke-linecap:butt;stroke-linejoin:miter;stroke:rgb(0%,0%,0%);stroke-opacity:1;stroke-miterlimit:10;" d="M 40 557.5 L 40 68.5 " transform="matrix(0.75,0,0,0.75,0,0)"/>
<path style="fill:none;stroke-width:1;stroke-linecap:butt;stroke-linejoin:miter;stroke:rgb(0%,0%,0%);stroke-opacity:1;stroke-miterlimit:10;" d="M 39.5 69 L 784.5 69 " transform="matrix(0.75,0,0,0.75,0,0)"/>
<path style="fill:none;stroke-width:1;stroke-linecap:butt;stroke-linejoin:miter;stroke:rgb(0%,0%,0%);stroke-opacity:1;stroke-miterlimit:10;" d="M 784 557.5 L 784 68.5 " transform="matrix(0.75,0,0,0.75,0,0)"/>
</g>
</svg>
